<svg version="1.1" id="Layer_1" xmlns="http://www.w3.org/2000/svg" xmlns:xlink="http://www.w3.org/1999/xlink" x="0px" y="0px"
	 width="100%" viewBox="0 0 453 423" enable-background="new 0 0 453 423" xml:space="preserve">
<path fill="#FFFFFF" opacity="1.000000" stroke="none" 
	d="
M250.000000,424.000000 
	C166.690292,424.000000 83.880585,424.000000 1.035437,424.000000 
	C1.035437,283.063843 1.035437,142.127686 1.035437,1.095759 
	C151.893036,1.095759 302.786163,1.095759 453.839661,1.095759 
	C453.839661,141.999863 453.839661,282.999908 453.839661,424.000000 
	C386.127655,424.000000 318.313843,424.000000 250.000000,424.000000 
M271.109955,337.927246 
	C271.109955,337.927246 271.299011,337.764740 271.235413,337.036041 
	C270.584686,335.314240 269.933929,333.592438 269.265900,331.290131 
	C268.907410,330.854065 268.548920,330.417969 267.863159,329.072510 
	C267.740540,327.469635 267.579865,325.868622 267.502014,324.263580 
	C267.191803,317.866180 266.907349,311.467560 266.671722,304.357300 
	C266.490173,303.928589 266.308624,303.499878 266.317230,302.302948 
	C264.866882,297.223755 263.416565,292.144562 261.989899,287.001709 
	C261.989899,287.001709 261.926331,287.025635 261.920410,286.513550 
	C261.881622,286.347321 261.842804,286.181061 262.050873,285.205078 
	C261.729034,282.579712 260.938934,279.912750 261.167969,277.336365 
	C262.065674,267.238434 263.061249,257.137787 264.467102,247.100708 
	C265.336731,240.891815 267.012024,234.795776 268.870697,228.140594 
	C271.096344,219.301956 273.863586,210.486328 270.229370,201.410782 
	C270.229370,201.410782 270.018127,201.337936 270.453827,200.681137 
	C270.612762,200.471970 270.771729,200.262787 271.712341,200.369568 
	C273.348999,200.746475 274.985687,201.123383 276.950623,201.851715 
	C276.950623,201.851715 277.417999,201.962708 277.417999,201.962708 
	C277.417999,201.962708 277.865204,201.786972 278.633636,202.057144 
	C280.205811,202.046661 281.777985,202.036179 283.246887,202.083664 
	C283.246887,202.083664 283.151886,202.078018 283.547699,201.731659 
	C283.642151,201.583939 283.736572,201.436234 284.621277,201.309494 
	C288.269928,201.952591 290.679871,200.369247 292.161163,197.115433 
	C294.770844,191.382935 297.353210,185.637756 300.001984,179.923340 
	C301.448303,176.803101 300.416473,175.212067 297.225861,174.220810 
	C297.546265,173.184708 297.866699,172.148590 298.887634,170.725235 
	C302.925842,171.087006 304.589600,168.886810 305.447113,165.216553 
	C306.576385,160.383087 308.142151,155.651733 309.516663,150.875427 
	C311.566071,143.753693 309.888550,139.790970 302.807892,135.259201 
	C298.316986,133.323654 293.807129,131.430496 289.342804,129.435440 
	C286.965271,128.372940 284.666473,127.134171 282.345490,125.092300 
	C282.748444,118.592110 280.321167,113.509171 274.688721,109.344597 
	C272.727448,107.208351 270.766205,105.072105 268.527557,102.283592 
	C267.920013,100.624008 267.469727,98.883423 266.666809,97.324463 
	C265.552917,95.161758 264.174225,93.135445 262.495544,90.572685 
	C262.667419,89.197426 262.839294,87.822159 263.570862,85.994713 
	C266.324677,82.132172 268.943481,78.163841 271.866852,74.434204 
	C275.423553,69.896561 275.615448,64.437508 271.709686,60.377075 
	C270.750824,59.456608 269.742035,58.582329 268.840851,57.608486 
	C260.647949,48.755363 239.653214,47.553429 230.656479,55.548035 
	C229.338684,56.719059 228.531647,58.464851 226.968399,60.437344 
	C225.753464,66.887199 224.504257,73.331078 223.376801,79.796181 
	C223.264557,80.439804 223.708801,81.641273 224.208649,81.857208 
	C227.884552,83.445221 227.324249,86.906944 228.013351,89.851044 
	C228.442215,91.683296 229.095825,93.462929 230.063889,95.903198 
	C232.739548,96.824768 235.415222,97.746330 237.484650,99.036949 
	C236.634171,99.415024 235.783691,99.793106 234.473450,99.744095 
	C230.457199,100.028076 218.650513,108.319977 218.414688,111.953262 
	C218.057861,117.450737 214.203064,117.960342 209.806000,118.991005 
	C202.159256,114.115570 200.550369,106.391510 200.751633,98.021164 
	C202.762955,96.966827 206.235199,96.174332 206.480896,94.803543 
	C206.989334,91.966728 206.732330,88.057137 205.061111,85.979553 
	C202.403198,82.675377 199.266022,78.245262 194.280396,79.038826 
	C190.730942,79.603798 187.495865,82.143967 183.379837,83.923088 
	C182.581757,85.318398 181.783661,86.713707 180.326401,88.318886 
	C176.585922,89.641464 173.887253,91.657005 174.910873,96.251915 
	C175.640289,99.526207 176.916901,102.164032 181.202438,102.534180 
	C183.339767,106.084122 185.477081,109.634056 187.362198,114.053444 
	C187.929230,123.750175 188.698105,133.440872 188.988495,143.145889 
	C189.166138,149.081909 191.973862,151.417343 198.245178,151.696442 
	C202.026779,151.514755 205.808365,151.333069 210.180191,151.674881 
	C213.199783,155.734421 216.219376,159.793976 219.303711,164.658600 
	C214.230011,179.261536 209.132095,193.856140 204.091583,208.470520 
	C201.022034,217.370331 201.085144,217.469070 208.417099,223.887695 
	C209.521881,223.254013 210.674683,222.592789 211.892929,221.894028 
	C212.335434,223.065536 212.625336,223.833008 212.785110,225.473770 
	C212.331070,229.542358 212.387695,233.751068 211.317841,237.650711 
	C209.012573,246.053528 208.857300,254.423416 210.009415,263.837372 
	C210.356522,271.891113 210.703629,279.944855 210.916107,288.754150 
	C212.639404,291.459717 214.091385,294.393707 216.138916,296.826355 
	C221.435715,303.119415 227.279266,308.967834 232.358765,315.423218 
	C236.330872,320.471191 239.301315,326.295258 243.069611,331.520050 
	C245.475006,334.855133 246.970032,338.034058 244.700012,342.139160 
	C244.623383,342.242615 244.460342,342.403717 244.484482,342.439850 
	C244.615738,342.636505 244.793182,342.802307 245.049103,343.867249 
	C244.858215,346.238403 244.667313,348.609589 243.604752,350.980865 
	C226.442459,350.988800 209.269745,350.631744 192.121170,351.120697 
	C178.499939,351.509094 165.646133,355.174805 154.124344,362.907715 
	C145.754608,368.525146 144.698471,379.587463 150.342773,386.914398 
	C156.018402,394.282043 164.772522,395.818298 172.954193,396.729095 
	C186.776306,398.267761 200.759567,398.577087 214.686798,398.905151 
	C238.804382,399.473206 262.930786,399.674316 287.054108,399.981720 
	C289.030243,400.006927 291.115234,400.009857 292.972717,399.443115 
	C304.678772,395.871490 316.532959,392.653870 327.943817,388.288391 
	C336.867004,384.874664 345.607635,380.589752 352.245758,373.213837 
	C356.470947,368.519012 356.275299,361.777893 351.522217,359.470459 
	C347.666992,357.598907 343.576263,356.024048 339.422852,354.987518 
	C320.848297,350.352142 301.891388,350.726501 282.390472,350.771698 
	C281.289032,350.174622 280.187592,349.577515 278.981567,348.262482 
	C276.812195,345.570953 274.642792,342.879395 272.414246,339.611847 
	C272.029236,338.983734 271.644196,338.355652 271.109955,337.927246 
M79.784241,262.037537 
	C81.004608,261.105560 83.018318,260.375427 83.315224,259.208496 
	C85.099480,252.195770 86.489578,245.082748 88.327034,237.304535 
	C88.579903,235.539093 88.832771,233.773636 89.591393,231.556442 
	C89.512886,230.619263 89.804108,229.326096 89.298080,228.800568 
	C84.756287,224.083664 83.499054,217.999969 82.012276,211.332901 
	C82.001991,210.891083 81.991699,210.449280 81.995392,209.124619 
	C81.286263,204.121048 80.876862,199.050400 79.776970,194.134262 
	C78.828476,189.894760 72.925262,186.625961 67.490524,186.966171 
	C67.323837,186.970169 67.157150,186.974167 66.236809,187.067200 
	C62.934025,187.840134 61.850899,189.880875 61.929230,193.265686 
	C62.135365,202.173843 62.003567,211.089828 61.979446,220.749771 
	C61.974186,221.497162 61.968929,222.244568 61.406277,223.552490 
	C60.148258,230.079025 60.001060,236.573715 61.970573,243.504272 
	C61.970573,243.504272 61.980392,244.000580 61.987514,244.786667 
	C64.000732,249.212006 66.023361,253.633102 68.024353,258.063965 
	C69.784325,261.961151 72.617348,263.879517 77.595436,262.989624 
	C78.078163,262.686066 78.560883,262.382538 79.784241,262.037537 
M54.305798,309.657440 
	C54.807888,310.079132 55.248585,310.628662 55.821133,310.903656 
	C67.560692,316.541901 79.312973,314.119202 91.012123,310.766754 
	C91.578445,310.604462 91.713799,308.938171 92.033768,307.144165 
	C92.473640,303.433044 90.559074,302.113281 87.106377,301.935913 
	C85.230766,301.839600 83.070610,301.618378 81.600334,300.623566 
	C79.397652,299.133240 77.689125,296.912567 75.553802,294.786865 
	C76.536964,285.778290 78.980385,276.386139 78.310173,266.763000 
	C76.878723,272.897583 76.324669,279.136932 75.050514,285.225616 
	C73.005821,294.996490 72.804428,294.954346 63.067188,296.046295 
	C52.908504,297.185486 50.898636,300.055267 54.305798,309.657440 
M438.981995,390.192383 
	C440.329987,381.018219 440.175232,380.660034 433.136810,377.027344 
	C433.404663,375.655762 433.925385,374.220520 433.919861,372.787292 
	C433.903259,368.471069 434.657471,364.640228 436.674194,360.545349 
	C438.630951,356.572266 438.773315,351.447449 438.730408,346.837616 
	C438.701355,343.717438 436.918121,340.628784 436.022034,337.496704 
	C435.295746,334.958160 435.276489,332.012329 433.908142,329.926422 
	C432.784607,328.213684 430.138214,327.499908 428.166779,326.343384 
	C427.446716,327.962036 426.282135,329.530029 426.090759,331.208954 
	C425.537415,336.063873 425.395203,340.964752 425.055389,345.845062 
	C424.575562,352.736481 425.412048,359.090820 431.373444,363.784454 
	C432.325104,364.533722 432.975555,366.319153 432.908051,367.579681 
	C432.743713,370.648804 432.075775,373.690918 431.525543,377.302734 
	C427.759460,376.912994 424.498810,376.549500 421.232788,376.243225 
	C415.350861,375.691650 408.695648,375.218719 405.123505,380.204742 
	C402.836853,383.396454 401.060028,384.053772 397.846710,384.023346 
	C391.755432,383.965698 391.161957,384.642517 390.409576,391.250397 
	C388.064270,394.651520 391.935577,394.467438 392.983643,394.859314 
	C404.986267,399.347443 417.440552,400.376862 429.887573,397.604919 
	C433.233490,396.859772 435.949738,393.287170 438.981995,390.192383 
M103.000000,93.000000 
	C103.000000,93.000000 103.009506,93.007301 103.003311,92.177803 
	C103.139000,91.196724 103.202820,90.199287 103.421715,89.237137 
	C105.221992,81.323792 107.089142,73.425507 105.014664,65.249420 
	C102.984169,57.246658 95.964294,53.725655 88.308365,57.653423 
	C78.342529,62.766258 71.193253,70.547516 64.814705,79.344879 
	C62.846256,82.059807 60.900520,84.791191 58.368786,88.316528 
	C58.157875,86.512299 58.040482,85.894890 58.020039,85.274292 
	C57.773293,77.782791 54.451576,75.823509 47.819843,79.641876 
	C40.274319,83.986366 38.358410,91.725288 35.832470,99.661400 
	C37.890640,99.812859 39.189201,99.991249 40.487846,99.991867 
	C72.766304,100.007172 105.044777,100.003799 137.323242,100.002785 
	C137.988693,100.002762 138.790878,100.226448 139.290573,99.935638 
	C140.269745,99.365799 141.929581,98.266304 141.801117,97.811768 
	C141.419357,96.460876 140.534531,94.621094 139.425049,94.257370 
	C137.829727,93.734367 135.863297,94.350746 134.054520,94.469360 
	C132.176819,94.592491 130.298218,94.701996 128.479584,94.813797 
	C126.852371,82.943352 122.285217,80.506310 113.071938,85.999702 
	C112.224800,86.504807 111.508202,87.223717 110.690361,87.784042 
	C108.134956,89.534836 105.560059,91.257172 103.000000,93.000000 
M426.991455,270.408508 
	C427.333252,263.959900 427.670776,257.511078 428.018463,251.062805 
	C428.212494,247.464844 428.379303,243.662476 423.921448,242.576401 
	C419.570679,241.516464 415.386230,241.345139 411.423798,244.771881 
	C405.349060,250.025345 404.569244,257.012482 404.052307,264.128448 
	C403.313446,274.298798 402.098724,284.221344 395.667358,292.746216 
	C394.582520,294.184235 393.861877,296.489136 394.110352,298.231262 
	C394.893982,303.725677 396.172974,309.152832 397.346954,314.587250 
	C398.421143,319.559753 399.003784,324.754517 400.901093,329.403168 
	C403.179413,334.985260 408.438690,337.645691 412.815765,335.725006 
	C416.155090,334.259705 419.741608,332.014435 421.742615,329.102295 
	C427.080322,321.333984 430.064514,312.323364 429.836121,302.930359 
	C429.579834,292.390717 427.997070,281.883362 426.991455,270.408508 
M341.146637,105.696289 
	C337.807159,110.048874 334.467682,114.401451 330.780365,119.207405 
	C329.306274,112.064064 327.300903,110.637962 322.283478,112.406708 
	C317.112640,114.229523 311.719452,123.657303 312.620026,129.669205 
	C313.836517,129.775024 315.127716,129.984375 316.419037,129.985352 
	C342.540039,130.005096 368.661072,130.001053 394.782074,130.000732 
	C395.447510,130.000717 396.264679,130.232986 396.747864,129.932983 
	C397.868317,129.237411 398.827362,128.281891 399.851837,127.431732 
	C398.780182,126.625351 397.751862,125.215126 396.628082,125.134407 
	C394.041077,124.948608 391.407654,125.409218 388.557068,125.625435 
	C388.382751,124.876373 388.104065,124.109306 388.037109,123.324203 
	C387.431061,116.216240 383.954529,114.195122 377.814178,117.657089 
	C374.246490,119.668564 370.911377,122.092583 367.748688,124.150665 
	C368.167236,117.328201 368.818329,110.449593 368.952423,103.560921 
	C369.111450,95.394852 362.486755,90.821091 355.240662,94.617043 
	C350.219666,97.247337 346.071625,101.543945 341.146637,105.696289 
z"/>
<path fill="#E0DDDD" opacity="1.000000" stroke="none" 
	d="
M282.950195,351.101532 
	C301.891388,350.726501 320.848297,350.352142 339.422852,354.987518 
	C343.576263,356.024048 347.666992,357.598907 351.522217,359.470459 
	C356.275299,361.777893 356.470947,368.519012 352.245758,373.213837 
	C345.607635,380.589752 336.867004,384.874664 327.943817,388.288391 
	C316.532959,392.653870 304.678772,395.871490 292.972717,399.443115 
	C291.115234,400.009857 289.030243,400.006927 287.054108,399.981720 
	C262.930786,399.674316 238.804382,399.473206 214.686798,398.905151 
	C200.759567,398.577087 186.776306,398.267761 172.954193,396.729095 
	C164.772522,395.818298 156.018402,394.282043 150.342773,386.914398 
	C144.698471,379.587463 145.754608,368.525146 154.124344,362.907715 
	C165.646133,355.174805 178.499939,351.509094 192.121170,351.120697 
	C209.269745,350.631744 226.442459,350.988800 244.191254,351.370667 
	C244.161774,355.219513 243.545792,358.678589 242.649185,362.322510 
	C239.541504,364.178680 236.714462,365.850006 232.965790,368.066223 
	C235.859436,369.362091 237.395569,370.050018 239.689407,371.077240 
	C233.678253,376.032654 228.225098,380.528076 222.440826,385.097534 
	C220.349304,388.111450 221.334442,390.735931 224.403595,390.883514 
	C230.397476,391.171753 236.501495,390.962830 242.439240,390.114777 
	C248.257462,389.283813 253.875168,387.128937 259.673767,386.057983 
	C265.554352,384.971893 267.700623,382.561951 265.932617,377.552521 
	C265.899017,375.436401 265.856262,373.744415 266.122955,371.813660 
	C266.846008,369.484558 267.259644,367.394318 267.807861,364.623932 
	C269.481018,366.442169 270.542664,367.595886 271.480377,368.614929 
	C273.957855,366.948090 276.185211,365.449554 278.983704,363.566742 
	C278.754181,362.734589 278.379700,361.376617 278.200134,359.739868 
	C281.607849,357.597870 283.349182,354.932831 282.950195,351.101532 
z"/>
<path fill="#1F64A9" opacity="1.000000" stroke="none" 
	d="
M242.929810,362.137665 
	C243.545792,358.678589 244.161774,355.219513 244.627106,351.370605 
	C244.667313,348.609589 244.858215,346.238403 245.130264,343.199829 
	C245.166336,342.366608 245.121231,342.200775 245.076141,342.034973 
	C246.970032,338.034058 245.475006,334.855133 243.069611,331.520050 
	C239.301315,326.295258 236.330872,320.471191 232.358765,315.423218 
	C227.279266,308.967834 221.435715,303.119415 216.138916,296.826355 
	C214.091385,294.393707 212.639404,291.459717 211.265198,288.070618 
	C211.614288,277.353241 211.614288,267.319427 211.614288,256.392426 
	C211.035614,259.177612 210.646912,261.048401 210.258209,262.919189 
	C208.857300,254.423416 209.012573,246.053528 211.317841,237.650711 
	C212.387695,233.751068 212.331070,229.542358 212.927795,224.645111 
	C213.748749,219.134476 214.427002,214.452469 215.430664,209.897202 
	C219.154739,211.433517 222.553391,212.843124 225.977570,214.681580 
	C226.034164,217.763885 226.065231,220.417343 226.085266,223.463333 
	C225.394104,226.590179 224.713959,229.324493 224.018219,232.043121 
	C224.002640,232.027466 224.039474,232.009720 223.813293,232.130676 
	C223.694839,232.791824 223.802551,233.332001 223.927872,234.260269 
	C224.933395,236.537521 225.921326,238.426697 227.525436,241.494202 
	C229.461029,236.984558 230.689850,234.121582 232.309540,231.186676 
	C236.069977,230.063934 239.439560,229.013107 243.135834,227.950668 
	C243.973297,227.604950 244.484039,227.270828 244.975464,226.962677 
	C244.956131,226.988663 244.907333,226.945663 245.358871,226.963654 
	C246.642105,226.982498 247.473801,226.984879 248.305496,226.983917 
	C257.004059,226.973724 258.612305,229.416550 257.114441,237.895020 
	C255.335953,247.961929 252.944138,258.216461 253.306717,268.300201 
	C253.940659,285.931030 255.895782,303.575928 258.384094,321.060242 
	C260.629852,336.839844 259.408569,352.383392 257.534729,368.021454 
	C256.055939,368.053192 254.977661,368.084045 253.535492,368.074951 
	C249.757675,366.069214 246.343735,364.103424 242.929810,362.137665 
M231.964264,251.984390 
	C231.729538,251.178421 231.494812,250.372452 230.991745,248.645172 
	C226.965683,271.401947 230.237045,304.081879 246.698730,312.043732 
	C245.458481,309.912445 244.979187,308.617493 244.113800,307.678375 
	C238.557678,301.648590 235.383118,294.296661 236.260468,286.419525 
	C237.029434,279.515472 235.454926,273.430603 233.937973,267.026550 
	C232.842987,262.403839 232.597519,257.579926 231.964264,251.984390 
z"/>
<path fill="#3FB298" opacity="1.000000" stroke="none" 
	d="
M262.908905,91.050735 
	C264.174225,93.135445 265.552917,95.161758 266.666809,97.324463 
	C267.469727,98.883423 267.920013,100.624008 268.373047,102.515381 
	C265.968781,101.111855 264.140167,101.357803 262.214905,103.529640 
	C259.809357,106.243256 257.115906,108.711624 254.453476,111.185455 
	C249.139099,116.123322 244.962051,121.578857 245.963760,129.763397 
	C247.740204,128.590042 249.336761,127.196793 250.244949,125.446396 
	C254.442703,117.355690 260.680695,111.982758 269.828400,110.421570 
	C272.133453,114.150742 275.400909,117.285164 276.317719,120.999748 
	C278.933868,131.599716 278.225311,142.312210 274.599731,152.690887 
	C273.960236,154.521500 272.680908,156.139008 271.631500,157.813858 
	C269.454895,161.287735 267.234253,164.734024 264.724548,167.990753 
	C263.247559,164.582245 262.077728,161.374680 261.284424,158.111328 
	C266.659760,156.805801 269.939362,153.600845 272.117279,148.931091 
	C272.177155,148.926514 272.097382,148.974976 271.637299,149.011093 
	C268.221191,149.980667 265.133392,150.829987 262.168518,151.992798 
	C260.304565,152.723831 258.624969,153.924942 256.528931,154.925766 
	C255.163177,155.303360 254.131165,155.670380 252.683426,156.034485 
	C248.846024,156.530579 245.418716,156.995300 242.007599,157.558319 
	C241.348892,157.667023 240.289490,158.064285 240.201080,158.491241 
	C239.329895,162.698318 236.760818,160.839874 234.428696,160.297775 
	C230.612976,159.410812 226.760162,158.683350 222.905960,157.555603 
	C223.156250,156.174850 223.423599,155.127106 223.821259,153.701126 
	C224.420425,151.556885 224.689911,149.706604 225.394440,148.040237 
	C227.769302,142.423279 227.403458,137.893906 222.405136,133.382538 
	C217.832001,129.254959 214.383118,123.881760 210.438812,119.057457 
	C214.203064,117.960342 218.057861,117.450737 218.414688,111.953262 
	C218.650513,108.319977 230.457199,100.028076 234.587097,100.258896 
	C233.442947,102.052261 232.081558,103.247421 230.962418,104.637611 
	C230.166733,105.626007 229.697525,106.877258 229.030563,108.364655 
	C227.298920,112.939034 222.107544,116.124451 225.441193,122.989586 
	C228.271439,118.520996 230.649582,114.766251 233.340240,111.335403 
	C233.888748,113.153793 234.124725,114.648285 234.406448,116.467224 
	C233.246201,121.772911 231.930573,126.731865 230.910507,131.750900 
	C230.652435,133.020798 231.337067,134.482285 231.588501,135.855743 
	C232.702927,134.953476 234.441910,134.262482 234.830231,133.114578 
	C237.317291,125.762520 239.507767,118.310135 242.046265,110.825035 
	C242.553925,110.538216 242.811066,110.317101 243.422241,110.086433 
	C244.996368,109.270691 246.417496,108.656723 247.403046,107.626183 
	C252.631927,102.158676 257.751465,96.586594 262.908905,91.050735 
z"/>
<path fill="#E6E6E6" opacity="1.000000" stroke="none" 
	d="
M426.991455,270.885223 
	C427.997070,281.883362 429.579834,292.390717 429.836121,302.930359 
	C430.064514,312.323364 427.080322,321.333984 421.742615,329.102295 
	C419.741608,332.014435 416.155090,334.259705 412.815765,335.725006 
	C408.438690,337.645691 403.179413,334.985260 400.901093,329.403168 
	C399.003784,324.754517 398.421143,319.559753 397.346954,314.587250 
	C396.172974,309.152832 394.893982,303.725677 394.110352,298.231262 
	C393.861877,296.489136 394.582520,294.184235 395.667358,292.746216 
	C402.098724,284.221344 403.313446,274.298798 404.052307,264.128448 
	C404.569244,257.012482 405.349060,250.025345 411.423798,244.771881 
	C415.386230,241.345139 419.570679,241.516464 423.921448,242.576401 
	C428.379303,243.662476 428.212494,247.464844 428.018463,251.062805 
	C427.670776,257.511078 427.333252,263.959900 426.991455,270.885223 
z"/>
<path fill="#E8E8E8" opacity="1.000000" stroke="none" 
	d="
M102.992714,92.990540 
	C105.560059,91.257172 108.134956,89.534836 110.690361,87.784042 
	C111.508202,87.223717 112.224800,86.504807 113.071938,85.999702 
	C122.285217,80.506310 126.852371,82.943352 128.479584,94.813797 
	C130.298218,94.701996 132.176819,94.592491 134.054520,94.469360 
	C135.863297,94.350746 137.829727,93.734367 139.425049,94.257370 
	C140.534531,94.621094 141.419357,96.460876 141.801117,97.811768 
	C141.929581,98.266304 140.269745,99.365799 139.290573,99.935638 
	C138.790878,100.226448 137.988693,100.002762 137.323242,100.002785 
	C105.044777,100.003799 72.766304,100.007172 40.487846,99.991867 
	C39.189201,99.991249 37.890640,99.812859 35.832470,99.661400 
	C38.358410,91.725288 40.274319,83.986366 47.819843,79.641876 
	C54.451576,75.823509 57.773293,77.782791 58.020039,85.274292 
	C58.040482,85.894890 58.157875,86.512299 58.368786,88.316528 
	C60.900520,84.791191 62.846256,82.059807 64.814705,79.344879 
	C71.193253,70.547516 78.342529,62.766258 88.308365,57.653423 
	C95.964294,53.725655 102.984169,57.246658 105.014664,65.249420 
	C107.089142,73.425507 105.221992,81.323792 103.421715,89.237137 
	C103.202820,90.199287 103.139000,91.196724 102.867661,92.642288 
	C102.818909,93.068024 102.905815,93.029282 102.992714,92.990540 
z"/>
<path fill="#E7E7E8" opacity="1.000000" stroke="none" 
	d="
M341.340088,105.396156 
	C346.071625,101.543945 350.219666,97.247337 355.240662,94.617043 
	C362.486755,90.821091 369.111450,95.394852 368.952423,103.560921 
	C368.818329,110.449593 368.167236,117.328201 367.748688,124.150665 
	C370.911377,122.092583 374.246490,119.668564 377.814178,117.657089 
	C383.954529,114.195122 387.431061,116.216240 388.037109,123.324203 
	C388.104065,124.109306 388.382751,124.876373 388.557068,125.625435 
	C391.407654,125.409218 394.041077,124.948608 396.628082,125.134407 
	C397.751862,125.215126 398.780182,126.625351 399.851837,127.431732 
	C398.827362,128.281891 397.868317,129.237411 396.747864,129.932983 
	C396.264679,130.232986 395.447510,130.000717 394.782074,130.000732 
	C368.661072,130.001053 342.540039,130.005096 316.419037,129.985352 
	C315.127716,129.984375 313.836517,129.775024 312.620026,129.669205 
	C311.719452,123.657303 317.112640,114.229523 322.283478,112.406708 
	C327.300903,110.637962 329.306274,112.064064 330.780365,119.207405 
	C334.467682,114.401451 337.807159,110.048874 341.340088,105.396156 
z"/>
<path fill="#164676" opacity="1.000000" stroke="none" 
	d="
M257.935211,368.020538 
	C259.408569,352.383392 260.629852,336.839844 258.384094,321.060242 
	C255.895782,303.575928 253.940659,285.931030 253.306717,268.300201 
	C252.944138,258.216461 255.335953,247.961929 257.114441,237.895020 
	C258.612305,229.416550 257.004059,226.973724 248.305496,226.983917 
	C247.473801,226.984879 246.642105,226.982498 245.425217,226.610794 
	C247.981995,225.417496 250.893814,224.091812 253.874344,223.913361 
	C256.889374,223.732834 259.972412,224.688065 263.308258,225.398651 
	C265.169128,226.650696 266.747406,227.649887 268.325653,228.649078 
	C267.012024,234.795776 265.336731,240.891815 264.467102,247.100708 
	C263.061249,257.137787 262.065674,267.238434 261.167969,277.336365 
	C260.938934,279.912750 261.729034,282.579712 261.759033,285.706970 
	C261.620209,286.481110 261.773285,286.753387 261.926331,287.025635 
	C261.926331,287.025635 261.989899,287.001709 261.961853,287.439941 
	C262.629456,292.046478 263.223846,296.236084 264.093811,300.367645 
	C264.304291,301.367218 265.424957,302.175140 266.127075,303.071167 
	C266.308624,303.499878 266.490173,303.928589 266.428101,305.056824 
	C266.131897,312.625580 265.973297,319.497162 266.125305,326.361877 
	C266.152374,327.583191 267.469177,328.775970 268.190430,329.981903 
	C268.548920,330.417969 268.907410,330.854065 268.992218,331.785278 
	C269.578705,334.108551 270.438843,335.936646 271.299011,337.764740 
	C271.299011,337.764740 271.109955,337.927246 271.105896,338.181854 
	C271.381317,339.294159 271.660797,340.151886 271.949890,341.363708 
	C271.284851,343.403778 270.610168,345.089752 269.564392,346.839233 
	C263.758270,349.107513 262.834198,351.730957 265.185242,358.525452 
	C264.904999,362.616608 264.684601,366.294037 264.078369,369.986755 
	C261.773438,369.341553 259.854309,368.681061 257.935211,368.020538 
z"/>
<path fill="#E882A8" opacity="1.000000" stroke="none" 
	d="
M210.122406,119.024231 
	C214.383118,123.881760 217.832001,129.254959 222.405136,133.382538 
	C227.403458,137.893906 227.769302,142.423279 225.394440,148.040237 
	C224.689911,149.706604 224.420425,151.556885 223.461914,153.679031 
	C220.325882,152.523453 217.048218,151.553040 215.179901,149.374161 
	C212.320862,146.039856 210.085068,142.035355 208.208130,138.023666 
	C204.562622,130.231812 201.455658,122.189583 197.906082,114.350471 
	C196.507263,111.261215 194.346939,108.683426 190.692719,108.516792 
	C193.498154,120.571114 202.764633,130.094818 202.079437,143.364227 
	C200.940002,144.970276 199.847748,146.247726 198.394226,147.334229 
	C196.616043,145.034897 194.425476,143.094574 193.924286,140.787262 
	C192.283432,133.233246 191.347321,125.528877 189.924194,117.922729 
	C189.612640,116.257393 188.407837,114.759178 187.614410,113.183998 
	C185.477081,109.634056 183.339767,106.084122 181.184769,101.963364 
	C181.453842,101.172836 181.740601,100.953125 182.389969,100.776871 
	C184.173218,97.548897 185.593842,94.277458 187.235413,90.497200 
	C184.800613,89.954346 182.746902,89.496452 180.715088,88.790070 
	C180.736984,88.541580 180.985580,88.109016 180.985580,88.109016 
	C181.783661,86.713707 182.581757,85.318398 183.949783,84.151672 
	C185.802856,85.075623 187.010895,86.053001 188.381973,86.417969 
	C194.601288,88.073502 198.672729,91.732788 199.985138,98.175049 
	C200.550369,106.391510 202.159256,114.115570 210.122406,119.024231 
z"/>
<path fill="#E6E6E6" opacity="1.000000" stroke="none" 
	d="
M390.957825,390.978912 
	C391.161957,384.642517 391.755432,383.965698 397.846710,384.023346 
	C401.060028,384.053772 402.836853,383.396454 405.123505,380.204742 
	C408.695648,375.218719 415.350861,375.691650 421.232788,376.243225 
	C424.498810,376.549500 427.759460,376.912994 431.525543,377.302734 
	C432.075775,373.690918 432.743713,370.648804 432.908051,367.579681 
	C432.975555,366.319153 432.325104,364.533722 431.373444,363.784454 
	C425.412048,359.090820 424.575562,352.736481 425.055389,345.845062 
	C425.395203,340.964752 425.537415,336.063873 426.090759,331.208954 
	C426.282135,329.530029 427.446716,327.962036 428.166809,326.343384 
	C430.138214,327.499908 432.784607,328.213684 433.908142,329.926422 
	C435.276489,332.012329 435.295746,334.958160 436.022034,337.496704 
	C436.918121,340.628784 438.701355,343.717438 438.730408,346.837616 
	C438.773315,351.447449 438.630951,356.572266 436.674194,360.545349 
	C434.657471,364.640228 433.903259,368.471069 433.919861,372.787292 
	C433.925385,374.220520 433.404663,375.655762 433.136810,377.027344 
	C440.175232,380.660034 440.329987,381.018219 438.577942,390.606384 
	C430.695007,392.014008 423.236877,393.223816 415.731750,393.943726 
	C407.304962,394.751984 398.980957,393.926849 390.957825,390.978912 
z"/>
<path fill="#E882A8" opacity="1.000000" stroke="none" 
	d="
M262.702209,90.811707 
	C257.751465,96.586594 252.631927,102.158676 247.403046,107.626183 
	C246.417496,108.656723 244.996368,109.270691 243.441971,109.681717 
	C245.140244,101.440094 247.172775,93.593643 249.321671,85.298012 
	C242.141663,88.936058 235.895126,92.101128 229.648575,95.266190 
	C229.095825,93.462929 228.442215,91.683296 228.013351,89.851044 
	C227.324249,86.906944 227.884552,83.445221 224.208649,81.857208 
	C223.708801,81.641273 223.264557,80.439804 223.376801,79.796181 
	C224.504257,73.331078 225.753464,66.887199 227.622345,60.253475 
	C231.284027,61.712070 234.575562,62.990276 237.243500,65.068901 
	C243.852325,70.217873 250.176025,75.732857 256.713837,81.441483 
	C258.879303,83.337090 260.945221,84.891991 263.011169,86.446884 
	C262.839294,87.822159 262.667419,89.197426 262.702209,90.811707 
z"/>
<path fill="#2465A9" opacity="1.000000" stroke="none" 
	d="
M256.614288,81.100784 
	C250.176025,75.732857 243.852325,70.217873 237.243500,65.068901 
	C234.575562,62.990276 231.284027,61.712070 227.882263,60.007149 
	C228.531647,58.464851 229.338684,56.719059 230.656479,55.548035 
	C239.653214,47.553429 260.647949,48.755363 268.840851,57.608486 
	C269.742035,58.582329 270.750824,59.456608 271.635895,60.876495 
	C272.482391,65.113037 269.873535,67.171844 267.472290,68.906540 
	C264.158142,71.300713 261.361359,73.668365 260.634674,78.083328 
	C260.438141,79.277374 258.015289,80.104973 256.614288,81.100784 
z"/>
<path fill="#124776" opacity="1.000000" stroke="none" 
	d="
M283.350159,202.025696 
	C281.777985,202.036179 280.205811,202.046661 278.096741,201.725662 
	C277.247375,201.429550 276.934845,201.464920 276.622345,201.500290 
	C274.985687,201.123383 273.348999,200.746475 271.166809,199.934708 
	C269.733398,196.013687 268.845490,192.527527 268.104614,188.706116 
	C270.259827,184.570282 272.411041,180.822266 268.232574,176.946228 
	C267.691589,176.444397 267.985107,175.043030 268.182495,173.858536 
	C270.195648,170.063538 271.365295,166.042755 273.743408,162.951782 
	C281.304901,153.123810 283.919098,142.110840 283.316406,130.018997 
	C285.113464,130.670258 286.561401,131.304169 288.226746,132.225464 
	C292.399536,133.615753 292.661713,136.176895 291.235992,139.464615 
	C285.757202,152.098709 280.180023,164.693146 274.977966,177.440475 
	C274.320190,179.052338 274.989441,182.125534 276.211426,183.416504 
	C280.274963,187.709412 286.090363,186.749664 289.115143,181.726151 
	C292.092072,176.782150 295.035065,171.817688 298.336365,166.894409 
	C299.140167,166.939850 299.600494,166.953064 300.034790,167.285706 
	C299.956238,168.027817 299.903656,168.450531 299.530029,168.946945 
	C298.868347,169.717926 298.527740,170.415207 298.187134,171.112488 
	C297.866699,172.148590 297.546265,173.184708 296.996521,174.873657 
	C292.455109,184.113846 288.143066,192.701187 283.831024,201.288528 
	C283.736572,201.436234 283.642151,201.583939 283.383545,201.897156 
	C283.219391,202.062668 283.350159,202.025696 283.350159,202.025696 
z"/>
<path fill="#E7E7E8" opacity="1.000000" stroke="none" 
	d="
M61.964012,243.007919 
	C60.001060,236.573715 60.148258,230.079025 62.091682,223.275208 
	C69.876328,222.337418 72.276703,228.633270 76.356773,232.872345 
	C76.941147,226.165421 77.471184,220.082108 78.000610,213.999390 
	C78.000000,214.000000 77.998779,214.001221 78.325455,213.972931 
	C79.771851,213.295029 80.891579,212.645401 82.011292,211.995789 
	C83.499054,217.999969 84.756287,224.083664 89.298080,228.800568 
	C89.804108,229.326096 89.512886,230.619263 89.029671,231.976898 
	C84.476486,234.392776 80.485023,236.388214 76.229286,238.515778 
	C72.901085,241.818741 81.399918,248.265244 72.883553,251.476166 
	C78.136391,254.005173 76.935188,258.696747 76.996445,263.008789 
	C72.617348,263.879517 69.784325,261.961151 68.024353,258.063965 
	C66.023361,253.633102 64.000732,249.212006 62.264355,244.584412 
	C65.026215,245.970810 67.511230,247.559448 69.996254,249.148087 
	C70.364449,248.471039 70.732651,247.794006 71.100853,247.116974 
	C68.055237,245.747284 65.009621,244.377609 61.964012,243.007919 
z"/>
<path fill="#E7E7E8" opacity="1.000000" stroke="none" 
	d="
M67.990692,186.959335 
	C72.925262,186.625961 78.828476,189.894760 79.776970,194.134262 
	C80.876862,199.050400 81.286263,204.121048 81.647209,209.598663 
	C80.198944,211.382217 79.098862,212.691711 77.998779,214.001221 
	C77.998779,214.001221 78.000000,214.000000 77.604706,213.986618 
	C76.468849,212.768509 75.611313,211.618607 75.014946,210.346298 
	C74.102577,208.399826 73.370369,206.368927 72.561684,204.373886 
	C72.321724,204.494553 72.081764,204.615219 71.841805,204.735886 
	C72.681404,211.258255 73.520996,217.780609 74.429886,224.841309 
	C69.496422,222.919861 65.751396,221.461273 62.006363,220.002686 
	C62.003567,211.089828 62.135365,202.173843 61.929230,193.265686 
	C61.850899,189.880875 62.934025,187.840134 66.616653,187.442566 
	C68.074944,192.460938 69.153381,197.103958 70.231827,201.746964 
	C70.886208,201.561310 71.540596,201.375656 72.194977,201.190002 
	C70.793549,196.446457 69.392120,191.702896 67.990692,186.959335 
z"/>
<path fill="#E8E8E8" opacity="1.000000" stroke="none" 
	d="
M53.965557,309.042053 
	C50.898636,300.055267 52.908504,297.185486 63.067188,296.046295 
	C72.804428,294.954346 73.005821,294.996490 75.050514,285.225616 
	C76.324669,279.136932 76.878723,272.897583 78.310173,266.763000 
	C78.980385,276.386139 76.536964,285.778290 75.553802,294.786865 
	C77.689125,296.912567 79.397652,299.133240 81.600334,300.623566 
	C83.070610,301.618378 85.230766,301.839600 87.106377,301.935913 
	C90.559074,302.113281 92.473640,303.433044 91.625214,307.569031 
	C81.482094,310.806946 71.790649,310.543640 61.966984,308.176361 
	C59.511940,307.584747 56.643826,308.707336 53.965557,309.042053 
z"/>
<path fill="#43B39A" opacity="1.000000" stroke="none" 
	d="
M215.105255,209.770477 
	C214.427002,214.452469 213.748749,219.134476 212.992859,224.208466 
	C212.625336,223.833008 212.335434,223.065536 211.892929,221.894028 
	C210.674683,222.592789 209.521881,223.254013 208.417099,223.887695 
	C201.085144,217.469070 201.022034,217.370331 204.091583,208.470520 
	C209.132095,193.856140 214.230011,179.261536 219.467285,164.260101 
	C219.630859,163.861618 220.014709,163.788605 220.014709,163.788605 
	C220.014709,163.788605 220.400757,163.848816 220.896378,163.926483 
	C222.369095,164.182953 223.346176,164.361755 224.360626,164.903076 
	C224.015198,166.870209 223.632416,168.474808 222.895325,170.089874 
	C222.409653,171.093369 222.278259,172.086380 222.164062,173.466248 
	C221.547897,175.857193 220.914536,177.861313 219.977753,180.047821 
	C219.554626,181.540771 219.434906,182.851318 219.329803,184.471100 
	C219.268570,185.184830 219.192734,185.589294 218.742828,185.991364 
	C216.353394,186.057266 213.410858,183.648285 212.735901,188.211563 
	C212.102142,189.714523 211.730698,191.004883 211.359268,192.295242 
	C211.810455,192.368912 212.261658,192.442596 212.712845,192.516266 
	C212.809174,191.011459 212.905502,189.506638 213.371445,188.047867 
	C214.914520,190.112122 216.087982,192.130341 217.285126,194.457123 
	C217.227539,195.168594 217.146286,195.571518 216.833542,196.110321 
	C216.701706,196.819168 216.801346,197.392151 216.947418,198.365967 
	C216.404678,201.153702 215.815491,203.540634 215.022430,206.016998 
	C214.726089,206.218994 214.536194,206.405762 214.556488,206.432419 
	C214.723648,206.651871 214.929840,206.841599 215.162659,207.381714 
	C215.169159,208.405563 215.137207,209.088013 215.105255,209.770477 
z"/>
<path fill="#196B59" opacity="1.000000" stroke="none" 
	d="
M282.967346,130.001663 
	C283.919098,142.110840 281.304901,153.123810 273.743408,162.951782 
	C271.365295,166.042755 270.195648,170.063538 267.938721,173.636353 
	C266.613586,171.806534 265.822662,169.999115 265.031738,168.191681 
	C267.234253,164.734024 269.454895,161.287735 271.631500,157.813858 
	C272.680908,156.139008 273.960236,154.521500 274.599731,152.690887 
	C278.225311,142.312210 278.933868,131.599716 276.317719,120.999748 
	C275.400909,117.285164 272.133453,114.150742 270.259766,110.387558 
	C271.980286,110.010895 273.380432,109.998077 274.780548,109.985260 
	C280.321167,113.509171 282.748444,118.592110 282.238159,125.877182 
	C282.409668,127.775261 282.688507,128.888458 282.967346,130.001663 
z"/>
<path fill="#1E6F5E" opacity="1.000000" stroke="none" 
	d="
M267.957581,189.041367 
	C268.845490,192.527527 269.733398,196.013687 270.776001,199.776718 
	C270.771729,200.262787 270.612762,200.471970 270.257660,201.008820 
	C270.061493,201.336517 270.006958,201.389359 270.006958,201.389359 
	C273.863586,210.486328 271.096344,219.301956 268.598175,228.394836 
	C266.747406,227.649887 265.169128,226.650696 263.313782,224.949524 
	C263.226471,222.439682 263.102783,220.529068 263.656372,218.840454 
	C267.577850,206.878479 265.808441,195.741394 260.481659,184.426178 
	C256.705933,176.405807 254.749573,167.528961 252.206024,159.019928 
	C252.430923,159.005432 252.881210,158.994247 253.069534,159.296509 
	C256.848663,167.897354 260.346802,176.238312 264.104553,184.460617 
	C264.903717,186.209259 266.648468,187.525772 267.957581,189.041367 
z"/>
<path fill="#C7698B" opacity="1.000000" stroke="none" 
	d="
M220.400757,163.848816 
	C220.400757,163.848816 220.014709,163.788605 220.014709,163.788605 
	C220.014709,163.788605 219.630859,163.861618 219.434906,163.857574 
	C216.219376,159.793976 213.199783,155.734421 209.903168,151.121567 
	C207.126297,148.057373 204.626450,145.546509 202.126602,143.035645 
	C202.764633,130.094818 193.498154,120.571114 190.692719,108.516792 
	C194.346939,108.683426 196.507263,111.261215 197.906082,114.350471 
	C201.455658,122.189583 204.562622,130.231812 208.208130,138.023666 
	C210.085068,142.035355 212.320862,146.039856 215.179901,149.374161 
	C217.048218,151.553040 220.325882,152.523453 223.331604,154.057266 
	C223.423599,155.127106 223.156250,156.174850 222.650040,157.810608 
	C221.741028,160.215332 221.070892,162.032074 220.400757,163.848816 
z"/>
<path fill="#2E66A8" opacity="1.000000" stroke="none" 
	d="
M200.368378,98.098106 
	C198.672729,91.732788 194.601288,88.073502 188.381973,86.417969 
	C187.010895,86.053001 185.802856,85.075623 184.320114,84.091446 
	C187.495865,82.143967 190.730942,79.603798 194.280396,79.038826 
	C199.266022,78.245262 202.403198,82.675377 205.061111,85.979553 
	C206.732330,88.057137 206.989334,91.966728 206.480896,94.803543 
	C206.235199,96.174332 202.762955,96.966827 200.368378,98.098106 
z"/>
<path fill="#226AA7" opacity="1.000000" stroke="none" 
	d="
M274.734619,109.664932 
	C273.380432,109.998077 271.980286,110.010895 270.148804,110.057724 
	C260.680695,111.982758 254.442703,117.355690 250.244949,125.446396 
	C249.336761,127.196793 247.740204,128.590042 245.963760,129.763397 
	C244.962051,121.578857 249.139099,116.123322 254.453476,111.185455 
	C257.115906,108.711624 259.809357,106.243256 262.214905,103.529640 
	C264.140167,101.357803 265.968781,101.111855 268.511749,102.841522 
	C270.766205,105.072105 272.727448,107.208351 274.734619,109.664932 
z"/>
<path fill="#E1E1E1" opacity="1.000000" stroke="none" 
	d="
M390.683716,391.114655 
	C398.980957,393.926849 407.304962,394.751984 415.731750,393.943726 
	C423.236877,393.223816 430.695007,392.014008 438.564453,391.016479 
	C435.949738,393.287170 433.233490,396.859772 429.887573,397.604919 
	C417.440552,400.376862 404.986267,399.347443 392.983643,394.859314 
	C391.935577,394.467438 388.064270,394.651520 390.683716,391.114655 
z"/>
<path fill="#164676" opacity="1.000000" stroke="none" 
	d="
M256.713837,81.441483 
	C258.015289,80.104973 260.438141,79.277374 260.634674,78.083328 
	C261.361359,73.668365 264.158142,71.300713 267.472290,68.906540 
	C269.873535,67.171844 272.482391,65.113037 271.795349,61.168236 
	C275.615448,64.437508 275.423553,69.896561 271.866852,74.434204 
	C268.943481,78.163841 266.324677,82.132172 263.291016,86.220795 
	C260.945221,84.891991 258.879303,83.337090 256.713837,81.441483 
z"/>
<path fill="#C7698B" opacity="1.000000" stroke="none" 
	d="
M229.856232,95.584702 
	C235.895126,92.101128 242.141663,88.936058 249.321671,85.298012 
	C247.172775,93.593643 245.140244,101.440094 243.087952,109.691269 
	C242.811066,110.317101 242.553925,110.538216 241.937256,110.507568 
	C240.987762,108.757607 240.397781,107.259422 239.790741,105.370331 
	C239.212738,102.875580 238.651810,100.771736 238.090881,98.667892 
	C235.415222,97.746330 232.739548,96.824768 229.856232,95.584702 
z"/>
<path fill="#C7698B" opacity="1.000000" stroke="none" 
	d="
M187.488312,113.618721 
	C188.407837,114.759178 189.612640,116.257393 189.924194,117.922729 
	C191.347321,125.528877 192.283432,133.233246 193.924286,140.787262 
	C194.425476,143.094574 196.616043,145.034897 198.275055,147.686432 
	C198.209915,149.176010 197.902664,150.122421 197.595413,151.068848 
	C191.973862,151.417343 189.166138,149.081909 188.988495,143.145889 
	C188.698105,133.440872 187.929230,123.750175 187.488312,113.618721 
z"/>
<path fill="#E6E6E6" opacity="1.000000" stroke="none" 
	d="
M88.011688,238.003326 
	C86.489578,245.082748 85.099480,252.195770 83.315224,259.208496 
	C83.018318,260.375427 81.004608,261.105560 79.398872,261.600464 
	C78.928848,259.015198 79.107368,256.817535 78.714157,254.727386 
	C76.974892,245.482025 78.777191,242.129608 88.011688,238.003326 
z"/>
<path fill="#E1E1E1" opacity="1.000000" stroke="none" 
	d="
M54.135677,309.349731 
	C56.643826,308.707336 59.511940,307.584747 61.966984,308.176361 
	C71.790649,310.543640 81.482094,310.806946 91.633247,307.983093 
	C91.713799,308.938171 91.578445,310.604462 91.012123,310.766754 
	C79.312973,314.119202 67.560692,316.541901 55.821133,310.903656 
	C55.248585,310.628662 54.807888,310.079132 54.135677,309.349731 
z"/>
<path fill="#2E66A8" opacity="1.000000" stroke="none" 
	d="
M284.226135,201.299011 
	C288.143066,192.701187 292.455109,184.113846 296.938721,175.195770 
	C300.416473,175.212067 301.448303,176.803101 300.001984,179.923340 
	C297.353210,185.637756 294.770844,191.382935 292.161163,197.115433 
	C290.679871,200.369247 288.269928,201.952591 284.226135,201.299011 
z"/>
<path fill="#E1E1E1" opacity="1.000000" stroke="none" 
	d="
M88.169357,237.653931 
	C78.777191,242.129608 76.974892,245.482025 78.714157,254.727386 
	C79.107368,256.817535 78.928848,259.015198 79.028549,261.621185 
	C78.560883,262.382538 78.078163,262.686066 77.295944,262.999207 
	C76.935188,258.696747 78.136391,254.005173 72.883553,251.476166 
	C81.399918,248.265244 72.901085,241.818741 76.229286,238.515778 
	C80.485023,236.388214 84.476486,234.392776 88.776794,232.202759 
	C88.832771,233.773636 88.579903,235.539093 88.169357,237.653931 
z"/>
<path fill="#E1E1E1" opacity="1.000000" stroke="none" 
	d="
M61.992905,220.376221 
	C65.751396,221.461273 69.496422,222.919861 74.429886,224.841309 
	C73.520996,217.780609 72.681404,211.258255 71.841805,204.735886 
	C72.081764,204.615219 72.321724,204.494553 72.561684,204.373886 
	C73.370369,206.368927 74.102577,208.399826 75.014946,210.346298 
	C75.611313,211.618607 76.468849,212.768509 77.605316,213.986008 
	C77.471184,220.082108 76.941147,226.165421 76.356773,232.872345 
	C72.276703,228.633270 69.876328,222.337418 62.370377,222.994934 
	C61.968929,222.244568 61.974186,221.497162 61.992905,220.376221 
z"/>
<path fill="#2E66A8" opacity="1.000000" stroke="none" 
	d="
M298.537384,170.918869 
	C298.527740,170.415207 298.868347,169.717926 299.932434,168.979187 
	C301.404114,168.453674 302.629272,168.113968 302.826233,167.463104 
	C304.659515,161.404938 306.336151,155.298782 308.014160,149.194443 
	C308.710297,146.662018 309.374451,144.383041 306.563080,142.212112 
	C304.812744,140.860519 304.068359,138.206223 302.942871,136.060760 
	C303.013214,135.984924 303.153687,135.833054 303.153687,135.833054 
	C309.888550,139.790970 311.566071,143.753693 309.516663,150.875427 
	C308.142151,155.651733 306.576385,160.383087 305.447113,165.216553 
	C304.589600,168.886810 302.925842,171.087006 298.537384,170.918869 
z"/>
<path fill="#1E6F5E" opacity="1.000000" stroke="none" 
	d="
M237.787766,98.852417 
	C238.651810,100.771736 239.212738,102.875580 239.572662,105.643303 
	C237.701340,109.585716 236.031021,112.864243 234.360687,116.142776 
	C234.124725,114.648285 233.888748,113.153793 233.188950,111.024712 
	C231.510941,109.597137 230.296768,108.804161 229.082596,108.011185 
	C229.697525,106.877258 230.166733,105.626007 230.962418,104.637611 
	C232.081558,103.247421 233.442947,102.052261 234.816986,100.472443 
	C235.783691,99.793106 236.634171,99.415024 237.787766,98.852417 
z"/>
<path fill="#C9D4CE" opacity="1.000000" stroke="none" 
	d="
M282.670349,350.936615 
	C283.349182,354.932831 281.607849,357.597870 277.822266,359.733643 
	C275.401642,358.269531 273.553864,356.532928 271.814636,354.501190 
	C272.310089,353.710541 272.696991,353.214996 273.395691,352.659485 
	C275.500336,351.393097 277.293243,350.186768 279.086151,348.980438 
	C280.187592,349.577515 281.289032,350.174622 282.670349,350.936615 
z"/>
<path fill="#2A4F7E" opacity="1.000000" stroke="none" 
	d="
M180.655991,88.213951 
	C180.985580,88.109016 180.736984,88.541580 180.455261,88.969177 
	C180.791473,93.175652 181.409409,96.954529 182.027344,100.733406 
	C181.740601,100.953125 181.453842,101.172836 181.054688,101.639481 
	C176.916901,102.164032 175.640289,99.526207 174.910873,96.251915 
	C173.887253,91.657005 176.585922,89.641464 180.655991,88.213951 
z"/>
<path fill="#1E6F5E" opacity="1.000000" stroke="none" 
	d="
M197.920288,151.382645 
	C197.902664,150.122421 198.209915,149.176010 198.636322,147.877380 
	C199.847748,146.247726 200.940002,144.970276 202.079437,143.364227 
	C204.626450,145.546509 207.126297,148.057373 209.608047,150.859818 
	C205.808365,151.333069 202.026779,151.514755 197.920288,151.382645 
z"/>
<path fill="#1E6F5E" opacity="1.000000" stroke="none" 
	d="
M279.033875,348.621460 
	C277.293243,350.186768 275.500336,351.393097 273.395874,352.307373 
	C272.034637,350.268799 270.985046,348.522247 269.935455,346.775696 
	C270.610168,345.089752 271.284851,343.403778 272.011017,341.209137 
	C272.152161,340.491669 272.289154,340.320801 272.473419,340.187866 
	C274.642792,342.879395 276.812195,345.570953 279.033875,348.621460 
z"/>
<path fill="#2A4F7E" opacity="1.000000" stroke="none" 
	d="
M210.133820,263.378296 
	C210.646912,261.048401 211.035614,259.177612 211.614288,256.392426 
	C211.614288,267.319427 211.614288,277.353241 211.332520,287.692810 
	C210.703629,279.944855 210.356522,271.891113 210.133820,263.378296 
z"/>
<path fill="#2E66A8" opacity="1.000000" stroke="none" 
	d="
M283.316406,130.018997 
	C282.688507,128.888458 282.409668,127.775261 282.231506,126.318512 
	C284.666473,127.134171 286.965271,128.372940 289.342804,129.435440 
	C293.807129,131.430496 298.316986,133.323654 302.980774,135.546127 
	C303.153687,135.833054 303.013214,135.984924 302.572083,136.015808 
	C300.841919,135.446808 299.600616,134.691528 298.254364,134.277649 
	C294.902618,133.247208 292.263306,128.995804 288.009369,131.938080 
	C286.561401,131.304169 285.113464,130.670258 283.316406,130.018997 
z"/>
<path fill="#2A4F7E" opacity="1.000000" stroke="none" 
	d="
M268.026794,329.527222 
	C267.469177,328.775970 266.152374,327.583191 266.125305,326.361877 
	C265.973297,319.497162 266.131897,312.625580 266.398926,305.412842 
	C266.907349,311.467560 267.191803,317.866180 267.502014,324.263580 
	C267.579865,325.868622 267.740540,327.469635 268.026794,329.527222 
z"/>
<path fill="#2A4F7E" opacity="1.000000" stroke="none" 
	d="
M266.222168,302.687073 
	C265.424957,302.175140 264.304291,301.367218 264.093811,300.367645 
	C263.223846,296.236084 262.629456,292.046478 261.950012,287.471802 
	C263.416565,292.144562 264.866882,297.223755 266.222168,302.687073 
z"/>
<path fill="#E1E1E1" opacity="1.000000" stroke="none" 
	d="
M67.740608,186.962753 
	C69.392120,191.702896 70.793549,196.446457 72.194977,201.190002 
	C71.540596,201.375656 70.886208,201.561310 70.231827,201.746964 
	C69.153381,197.103958 68.074944,192.460938 66.993477,187.398041 
	C67.157150,186.974167 67.323837,186.970169 67.740608,186.962753 
z"/>
<path fill="#E1E1E1" opacity="1.000000" stroke="none" 
	d="
M61.967293,243.256104 
	C65.009621,244.377609 68.055237,245.747284 71.100853,247.116974 
	C70.732651,247.794006 70.364449,248.471039 69.996254,249.148087 
	C67.511230,247.559448 65.026215,245.970810 62.260796,244.191376 
	C61.980392,244.000580 61.970573,243.504272 61.967293,243.256104 
z"/>
<path fill="#2A4F7E" opacity="1.000000" stroke="none" 
	d="
M271.267212,337.400391 
	C270.438843,335.936646 269.578705,334.108551 269.000854,332.075562 
	C269.933929,333.592438 270.584686,335.314240 271.267212,337.400391 
z"/>
<path fill="#E1E1E1" opacity="1.000000" stroke="none" 
	d="
M78.325455,213.972931 
	C79.098862,212.691711 80.198944,211.382217 81.640221,210.040100 
	C81.991699,210.449280 82.001991,210.891083 82.011787,211.664337 
	C80.891579,212.645401 79.771851,213.295029 78.325455,213.972931 
z"/>
<path fill="#2A4F7E" opacity="1.000000" stroke="none" 
	d="
M272.443848,339.899841 
	C272.289154,340.320801 272.152161,340.491669 272.001373,340.855011 
	C271.660797,340.151886 271.381317,339.294159 271.180511,338.082001 
	C271.644196,338.355652 272.029236,338.983734 272.443848,339.899841 
z"/>
<path fill="#2E66A8" opacity="1.000000" stroke="none" 
	d="
M283.298523,202.054688 
	C283.350159,202.025696 283.219391,202.062668 283.185638,202.070343 
	C283.151886,202.078018 283.246887,202.083664 283.298523,202.054688 
z"/>
<path fill="#E0DDDD" opacity="1.000000" stroke="none" 
	d="
M244.888077,342.087067 
	C245.121231,342.200775 245.166336,342.366608 245.083069,342.755554 
	C244.793182,342.802307 244.615738,342.636505 244.484482,342.439850 
	C244.460342,342.403717 244.623383,342.242615 244.888077,342.087067 
z"/>
<path fill="#2E66A8" opacity="1.000000" stroke="none" 
	d="
M276.786499,201.675995 
	C276.934845,201.464920 277.247375,201.429550 277.712524,201.590576 
	C277.865204,201.786972 277.417999,201.962708 277.417999,201.962708 
	C277.417999,201.962708 276.950623,201.851715 276.786499,201.675995 
z"/>
<path fill="#2E66A8" opacity="1.000000" stroke="none" 
	d="
M270.118164,201.400070 
	C270.006958,201.389359 270.061493,201.336517 270.039795,201.337219 
	C270.018127,201.337936 270.229370,201.410782 270.118164,201.400070 
z"/>
<path fill="#2A4F7E" opacity="1.000000" stroke="none" 
	d="
M261.923370,286.769592 
	C261.773285,286.753387 261.620209,286.481110 261.635559,286.111847 
	C261.842804,286.181061 261.881622,286.347321 261.923370,286.769592 
z"/>
<path fill="#43B39A" opacity="1.000000" stroke="none" 
	d="
M242.649170,362.322510 
	C246.343735,364.103424 249.757675,366.069214 253.574402,368.455200 
	C256.266998,373.370911 256.408783,378.029877 254.734467,383.029541 
	C249.300644,384.617279 244.169556,385.979553 238.966583,386.912842 
	C234.519775,385.824158 230.148132,385.136444 225.756149,384.622406 
	C225.604080,384.604614 225.248947,386.321960 224.637909,387.196655 
	C223.782227,386.449646 223.277084,385.736572 222.771942,385.023468 
	C228.225098,380.528076 233.678253,376.032654 239.689407,371.077240 
	C237.395569,370.050018 235.859436,369.362091 232.965790,368.066223 
	C236.714462,365.850006 239.541504,364.178680 242.649170,362.322510 
z"/>
<path fill="#E1E1E1" opacity="1.000000" stroke="none" 
	d="
M239.038467,387.341797 
	C244.169556,385.979553 249.300644,384.617279 255.088043,383.010590 
	C259.137421,381.169678 262.530426,379.573181 265.923462,377.976685 
	C267.700623,382.561951 265.554352,384.971893 259.673767,386.057983 
	C253.875168,387.128937 248.257462,389.283813 242.439240,390.114777 
	C236.501495,390.962830 230.397476,391.171753 224.403595,390.883514 
	C221.334442,390.735931 220.349304,388.111450 222.440826,385.097534 
	C223.277084,385.736572 223.782227,386.449646 224.774292,387.233337 
	C225.261200,387.303894 225.485458,387.131012 225.844925,387.411804 
	C230.316147,387.501160 234.427887,387.309753 238.639618,387.229401 
	C238.739609,387.340454 239.038467,387.341797 239.038467,387.341797 
z"/>
<path fill="#E1E1E1" opacity="1.000000" stroke="none" 
	d="
M271.706055,354.796265 
	C273.553864,356.532928 275.401642,358.269531 277.627319,360.012390 
	C278.379700,361.376617 278.754181,362.734589 278.983704,363.566742 
	C276.185211,365.449554 273.957855,366.948090 271.480377,368.614929 
	C270.542664,367.595886 269.481018,366.442169 267.807861,364.623932 
	C267.259644,367.394318 266.846008,369.484558 265.892944,371.600006 
	C265.057068,371.073944 264.760620,370.522705 264.464203,369.971466 
	C264.684601,366.294037 264.904999,362.616608 265.506287,358.453674 
	C267.826843,356.910858 269.766449,355.853577 271.706055,354.796265 
z"/>
<path fill="#1E6F5E" opacity="1.000000" stroke="none" 
	d="
M264.078369,369.986755 
	C264.760620,370.522705 265.057068,371.073944 265.583496,371.838806 
	C265.856262,373.744415 265.899017,375.436401 265.932617,377.552521 
	C262.530426,379.573181 259.137421,381.169678 255.390793,382.785095 
	C256.408783,378.029877 256.266998,373.370911 253.938278,368.495178 
	C254.977661,368.084045 256.055939,368.053192 257.534729,368.021454 
	C259.854309,368.681061 261.773438,369.341553 264.078369,369.986755 
z"/>
<path fill="#3EB297" opacity="1.000000" stroke="none" 
	d="
M251.981110,159.034393 
	C254.749573,167.528961 256.705933,176.405807 260.481659,184.426178 
	C265.808441,195.741394 267.577850,206.878479 263.656372,218.840454 
	C263.102783,220.529068 263.226471,222.439682 263.031128,224.696655 
	C259.972412,224.688065 256.889374,223.732834 253.874344,223.913361 
	C250.893814,224.091812 247.981995,225.417496 244.973679,226.592804 
	C244.907333,226.945663 244.956131,226.988663 244.653870,226.955048 
	C243.837448,227.268372 243.323288,227.615311 242.809113,227.962280 
	C239.439560,229.013107 236.069977,230.063934 231.921173,231.131516 
	C228.772552,231.451782 226.403168,231.755295 224.033798,232.058807 
	C224.713959,229.324493 225.394104,226.590179 226.369568,223.265381 
	C230.519943,212.769394 234.375031,202.863937 238.230118,192.958481 
	C237.808899,192.767029 237.387680,192.575577 236.966476,192.384125 
	C235.644928,194.596161 234.527405,196.968674 232.947296,198.977295 
	C231.195114,201.204636 229.020432,203.099609 226.890930,204.678070 
	C227.463837,191.161163 228.175568,178.105499 229.306763,164.984512 
	C232.115753,165.732498 234.980560,165.967438 236.805893,167.467346 
	C242.320374,171.998810 243.661865,171.725388 246.904114,165.151123 
	C248.044022,162.839767 250.257706,161.057983 251.981110,159.034393 
z"/>
<path fill="#D6D9D5" opacity="1.000000" stroke="none" 
	d="
M228.887299,165.049835 
	C228.175568,178.105499 227.463837,191.161163 226.806915,205.063202 
	C226.558472,208.690613 226.255249,211.471680 225.952042,214.252731 
	C222.553391,212.843124 219.154739,211.433517 215.430664,209.897202 
	C215.137207,209.088013 215.169159,208.405563 215.225128,207.106735 
	C215.241562,206.302780 215.233948,206.115173 215.226318,205.927551 
	C215.815491,203.540634 216.404678,201.153702 217.034119,198.041260 
	C217.071274,196.868652 217.068146,196.421555 217.065018,195.974457 
	C217.146286,195.571518 217.227539,195.168594 217.505463,194.156952 
	C218.173721,191.030075 218.645325,188.511932 219.116913,185.993774 
	C219.192734,185.589294 219.268570,185.184830 219.521439,184.231705 
	C219.791245,183.085617 219.884003,182.488190 220.157501,181.821991 
	C220.395355,181.635925 220.527893,181.488388 220.495285,181.407028 
	C220.402786,181.176208 220.242767,180.972458 220.207916,180.545593 
	C220.306503,180.333160 220.281189,179.865417 220.281189,179.865417 
	C220.914536,177.861313 221.547897,175.857193 222.398880,173.236237 
	C222.827545,171.772736 223.038574,170.926056 223.249603,170.079391 
	C223.632416,168.474808 224.015198,166.870209 224.696381,164.874573 
	C226.292282,164.672272 227.589798,164.861053 228.887299,165.049835 
z"/>
<path fill="#124776" opacity="1.000000" stroke="none" 
	d="
M231.968719,252.415070 
	C232.597519,257.579926 232.842987,262.403839 233.937973,267.026550 
	C235.454926,273.430603 237.029434,279.515472 236.260468,286.419525 
	C235.383118,294.296661 238.557678,301.648590 244.113800,307.678375 
	C244.979187,308.617493 245.458481,309.912445 246.698730,312.043732 
	C230.237045,304.081879 226.965683,271.401947 230.991745,248.645172 
	C231.494812,250.372452 231.729538,251.178421 231.968719,252.415070 
z"/>
<path fill="#196B59" opacity="1.000000" stroke="none" 
	d="
M225.977570,214.681580 
	C226.255249,211.471680 226.558472,208.690613 226.945709,205.524429 
	C229.020432,203.099609 231.195114,201.204636 232.947296,198.977295 
	C234.527405,196.968674 235.644928,194.596161 236.966476,192.384125 
	C237.387680,192.575577 237.808899,192.767029 238.230118,192.958481 
	C234.375031,202.863937 230.519943,212.769394 226.380585,222.872833 
	C226.065231,220.417343 226.034164,217.763885 225.977570,214.681580 
z"/>
<path fill="#1E6F5E" opacity="1.000000" stroke="none" 
	d="
M224.018219,232.043137 
	C226.403168,231.755295 228.772552,231.451782 231.530304,231.203430 
	C230.689850,234.121582 229.461029,236.984558 227.525436,241.494202 
	C225.921326,238.426697 224.933395,236.537521 223.986420,233.953949 
	C224.031403,232.842941 224.035431,232.426331 224.039474,232.009720 
	C224.039474,232.009720 224.002640,232.027466 224.018219,232.043137 
z"/>
<path fill="#3EB297" opacity="1.000000" stroke="none" 
	d="
M223.813293,232.130676 
	C224.035431,232.426331 224.031403,232.842941 223.968811,233.565857 
	C223.802551,233.332001 223.694839,232.791824 223.813293,232.130676 
z"/>
<path fill="#164676" opacity="1.000000" stroke="none" 
	d="
M243.135834,227.950653 
	C243.323288,227.615311 243.837448,227.268372 244.673203,226.929077 
	C244.484039,227.270828 243.973297,227.604950 243.135834,227.950653 
z"/>
<path fill="#1D64A2" opacity="1.000000" stroke="none" 
	d="
M268.104614,188.706116 
	C266.648468,187.525772 264.903717,186.209259 264.104553,184.460617 
	C260.346802,176.238312 256.848663,167.897354 253.113678,158.927887 
	C253.012711,157.517136 253.055923,156.777252 253.099152,156.037384 
	C254.131165,155.670380 255.163177,155.303360 256.866150,154.988373 
	C258.660706,156.082611 259.784302,157.124863 260.907867,158.167099 
	C262.077728,161.374680 263.247559,164.582245 264.724548,167.990753 
	C265.822662,169.999115 266.613586,171.806534 267.648315,173.836151 
	C267.985107,175.043030 267.691589,176.444397 268.232574,176.946228 
	C272.411041,180.822266 270.259827,184.570282 268.104614,188.706116 
z"/>
<path fill="#196B59" opacity="1.000000" stroke="none" 
	d="
M252.683411,156.034485 
	C253.055923,156.777252 253.012711,157.517136 252.925354,158.625626 
	C252.881210,158.994247 252.430923,159.005432 252.206009,159.019913 
	C250.257706,161.057983 248.044022,162.839767 246.904114,165.151123 
	C243.661865,171.725388 242.320374,171.998810 236.805893,167.467346 
	C234.980560,165.967438 232.115753,165.732498 229.306763,164.984528 
	C227.589798,164.861053 226.292282,164.672272 224.659027,164.512024 
	C223.346176,164.361755 222.369095,164.182953 220.896362,163.926483 
	C221.070892,162.032074 221.741028,160.215332 222.667084,158.143616 
	C226.760162,158.683350 230.612976,159.410812 234.428696,160.297775 
	C236.760818,160.839874 239.329895,162.698318 240.201080,158.491241 
	C240.289490,158.064285 241.348892,157.667023 242.007599,157.558319 
	C245.418716,156.995300 248.846024,156.530579 252.683411,156.034485 
z"/>
<path fill="#C9D4CE" opacity="1.000000" stroke="none" 
	d="
M234.406448,116.467224 
	C236.031021,112.864243 237.701340,109.585716 239.589752,106.034210 
	C240.397781,107.259422 240.987762,108.757607 241.686737,110.573273 
	C239.507767,118.310135 237.317291,125.762520 234.830231,133.114578 
	C234.441910,134.262482 232.702927,134.953476 231.588501,135.855743 
	C231.337067,134.482285 230.652435,133.020798 230.910507,131.750900 
	C231.930573,126.731865 233.246201,121.772911 234.406448,116.467224 
z"/>
<path fill="#226AA7" opacity="1.000000" stroke="none" 
	d="
M229.030563,108.364655 
	C230.296768,108.804161 231.510941,109.597137 232.876404,110.700806 
	C230.649582,114.766251 228.271439,118.520996 225.441193,122.989586 
	C222.107544,116.124451 227.298920,112.939034 229.030563,108.364655 
z"/>
<path fill="#1E6F5E" opacity="1.000000" stroke="none" 
	d="
M261.284424,158.111328 
	C259.784302,157.124863 258.660706,156.082611 257.199890,154.977783 
	C258.624969,153.924942 260.304565,152.723831 262.168518,151.992798 
	C265.133392,150.829987 268.221191,149.980667 271.628540,148.999985 
	C272.000031,149.001221 271.977600,148.984131 271.977600,148.984131 
	C269.939362,153.600845 266.659760,156.805801 261.284424,158.111328 
z"/>
<path fill="#1E6F5E" opacity="1.000000" stroke="none" 
	d="
M272.008789,149.012329 
	C272.097382,148.974976 272.177155,148.926514 272.117279,148.931091 
	C271.977600,148.984131 272.000031,149.001221 272.008789,149.012329 
z"/>
<path fill="#FFFFFF" opacity="1.000000" stroke="none" 
	d="
M102.996353,92.995270 
	C102.905815,93.029282 102.818909,93.068024 102.870758,93.057037 
	C103.009506,93.007301 103.000000,93.000000 102.996353,92.995270 
z"/>
<path fill="#3FB298" opacity="1.000000" stroke="none" 
	d="
M271.814636,354.501160 
	C269.766449,355.853577 267.826843,356.910858 265.566162,358.039948 
	C262.834198,351.730957 263.758270,349.107513 269.564392,346.839233 
	C270.985046,348.522247 272.034637,350.268799 273.084106,352.367401 
	C272.696991,353.214996 272.310089,353.710541 271.814636,354.501160 
z"/>
<path fill="#2E66A8" opacity="1.000000" stroke="none" 
	d="
M182.389954,100.776871 
	C181.409409,96.954529 180.791473,93.175652 180.433365,89.217667 
	C182.746902,89.496452 184.800613,89.954346 187.235413,90.497200 
	C185.593842,94.277458 184.173218,97.548897 182.389954,100.776871 
z"/>
<path fill="#1F64A9" opacity="1.000000" stroke="none" 
	d="
M288.226746,132.225464 
	C292.263306,128.995804 294.902618,133.247208 298.254364,134.277649 
	C299.600616,134.691528 300.841919,135.446808 302.501740,136.091644 
	C304.068359,138.206223 304.812744,140.860519 306.563080,142.212112 
	C309.374451,144.383041 308.710297,146.662018 308.014160,149.194443 
	C306.336151,155.298782 304.659515,161.404938 302.826233,167.463104 
	C302.629272,168.113968 301.404114,168.453674 300.253540,168.905487 
	C299.903656,168.450531 299.956238,168.027817 300.309875,167.070526 
	C301.082947,164.696457 301.554962,162.856979 302.297699,160.803574 
	C303.078888,159.050568 303.589325,157.511505 304.099731,155.972443 
	C303.614899,155.862350 303.130035,155.752258 302.645172,155.642166 
	C302.418884,157.417114 302.192596,159.192062 301.628540,161.026520 
	C300.191498,163.011414 299.092224,164.936813 297.992920,166.862198 
	C295.035065,171.817688 292.092072,176.782150 289.115143,181.726151 
	C286.090363,186.749664 280.274963,187.709412 276.211426,183.416504 
	C274.989441,182.125534 274.320190,179.052338 274.977966,177.440475 
	C280.180023,164.693146 285.757202,152.098709 291.235992,139.464615 
	C292.661713,136.176895 292.399536,133.615753 288.226746,132.225464 
z"/>
<path fill="#1D64A2" opacity="1.000000" stroke="none" 
	d="
M298.336365,166.894409 
	C299.092224,164.936813 300.191498,163.011414 301.642883,161.040268 
	C301.994995,160.994522 302.026978,161.017502 302.026978,161.017502 
	C301.554962,162.856979 301.082947,164.696457 300.335876,166.751129 
	C299.600494,166.953064 299.140167,166.939850 298.336365,166.894409 
z"/>
<path fill="#3EB297" opacity="1.000000" stroke="none" 
	d="
M218.742844,185.991364 
	C218.645325,188.511932 218.173721,191.030075 217.481781,193.848404 
	C216.087982,192.130341 214.914520,190.112122 213.370529,188.046951 
	C213.000000,188.000000 212.998245,187.998962 212.998245,187.998962 
	C213.410858,183.648285 216.353394,186.057266 218.742844,185.991364 
z"/>
<path fill="#3EB297" opacity="1.000000" stroke="none" 
	d="
M213.000916,188.000916 
	C212.905502,189.506638 212.809174,191.011459 212.712845,192.516266 
	C212.261658,192.442596 211.810455,192.368912 211.359268,192.295242 
	C211.730698,191.004883 212.102142,189.714523 212.735901,188.211563 
	C212.998245,187.998962 213.000000,188.000000 213.000916,188.000916 
z"/>
<path fill="#3EB297" opacity="1.000000" stroke="none" 
	d="
M222.895325,170.089874 
	C223.038574,170.926056 222.827545,171.772736 222.381683,172.849396 
	C222.278259,172.086380 222.409653,171.093369 222.895325,170.089874 
z"/>
<path fill="#3EB297" opacity="1.000000" stroke="none" 
	d="
M219.977753,180.047821 
	C220.281189,179.865417 220.306503,180.333160 220.164154,180.828873 
	C220.006790,181.513306 219.991776,181.702026 219.976761,181.890747 
	C219.884003,182.488190 219.791245,183.085617 219.506836,183.922455 
	C219.434906,182.851318 219.554626,181.540771 219.977753,180.047821 
z"/>
<path fill="#3EB297" opacity="1.000000" stroke="none" 
	d="
M216.833542,196.110321 
	C217.068146,196.421555 217.071274,196.868652 216.987686,197.640442 
	C216.801346,197.392151 216.701706,196.819168 216.833542,196.110321 
z"/>
<path fill="#3EB297" opacity="1.000000" stroke="none" 
	d="
M215.022430,206.016998 
	C215.233948,206.115173 215.241562,206.302780 215.186676,206.765350 
	C214.929840,206.841599 214.723648,206.651871 214.556488,206.432419 
	C214.536194,206.405762 214.726089,206.218994 215.022430,206.016998 
z"/>
<path fill="#3EB297" opacity="1.000000" stroke="none" 
	d="
M238.966583,386.912842 
	C239.038467,387.341797 238.739609,387.340454 238.131134,387.204041 
	C233.510269,387.088745 229.497864,387.109863 225.485458,387.131012 
	C225.485458,387.131012 225.261200,387.303894 225.124832,387.267242 
	C225.248947,386.321960 225.604080,384.604614 225.756149,384.622406 
	C230.148132,385.136444 234.519775,385.824158 238.966583,386.912842 
z"/>
<path fill="#43B39A" opacity="1.000000" stroke="none" 
	d="
M225.844925,387.411804 
	C229.497864,387.109863 233.510269,387.088745 238.031158,387.092957 
	C234.427887,387.309753 230.316147,387.501160 225.844925,387.411804 
z"/>
<path fill="#43B39A" opacity="1.000000" stroke="none" 
	d="
M220.157501,181.821991 
	C219.991776,181.702026 220.006790,181.513306 220.065582,181.041321 
	C220.242767,180.972458 220.402786,181.176208 220.495285,181.407028 
	C220.527893,181.488388 220.395355,181.635925 220.157501,181.821991 
z"/>
<path fill="#1D64A2" opacity="1.000000" stroke="none" 
	d="
M301.980652,160.980774 
	C302.192596,159.192062 302.418884,157.417114 302.645172,155.642166 
	C303.130035,155.752258 303.614899,155.862350 304.099731,155.972443 
	C303.589325,157.511505 303.078888,159.050568 302.297729,160.803574 
	C302.026978,161.017502 301.994995,160.994522 301.980652,160.980774 
z"/>
</svg>